<?xml version="1.0" encoding="UTF-8"?>
<svg id="_Слой_2" data-name="Слой 2" xmlns="http://www.w3.org/2000/svg" viewBox="0 0 1.63 13.06">
  <defs>
    <style>
      .cls-1 {
        fill: #fff;
      }
    </style>
  </defs>
  <g id="OBJECTS">
    <path class="cls-1" d="M.82,0c-.45,0-.82.37-.82.82s.37.82.82.82.82-.37.82-.82-.37-.82-.82-.82Z"/>
    <path class="cls-1" d="M.82,11.43c-.45,0-.82.37-.82.82s.37.82.82.82.82-.37.82-.82-.37-.82-.82-.82Z"/>
    <path class="cls-1" d="M.82,5.32c-.45,0-.82.37-.82.82s.37.82.82.82.82-.37.82-.82-.37-.82-.82-.82Z"/>
  </g>
</svg>