<?xml version="1.0" encoding="UTF-8"?>
<svg id="_Слой_2" data-name="Слой 2" xmlns="http://www.w3.org/2000/svg" viewBox="0 0 10.83 11.15">
  <defs>
    <style>
      .cls-1 {
        fill: #8084ad;
      }
    </style>
  </defs>
  <g id="OBJECTS">
    <g>
      <path class="cls-1" d="M4.53,4.95H.41c-.23,0-.41-.18-.41-.41V.41c0-.23.18-.41.41-.41h4.12c.23,0,.41.18.41.41v4.12c0,.23-.18.41-.41.41ZM.82,4.12h3.3V.82H.82v3.3Z"/>
      <path class="cls-1" d="M10.42,4.95h-4.12c-.23,0-.41-.18-.41-.41V.41c0-.23.18-.41.41-.41h4.12c.23,0,.41.18.41.41v4.12c0,.23-.18.41-.41.41ZM6.71,4.12h3.3V.82h-3.3v3.3Z"/>
      <path class="cls-1" d="M4.53,11.15H.41c-.23,0-.41-.18-.41-.41v-4.12c0-.23.18-.41.41-.41h4.12c.23,0,.41.18.41.41v4.12c0,.23-.18.41-.41.41ZM.82,10.33h3.3v-3.3H.82v3.3Z"/>
      <path class="cls-1" d="M10.42,11.15h-4.12c-.23,0-.41-.18-.41-.41v-4.12c0-.23.18-.41.41-.41h4.12c.23,0,.41.18.41.41v4.12c0,.23-.18.41-.41.41ZM6.71,10.33h3.3v-3.3h-3.3v3.3Z"/>
    </g>
  </g>
</svg>