<?xml version="1.0" encoding="UTF-8"?>
<svg id="_Слой_2" data-name="Слой 2" xmlns="http://www.w3.org/2000/svg" viewBox="0 0 13 11.34">
  <defs>
    <style>
      .cls-1 {
        fill: #fff;
      }
    </style>
  </defs>
  <g id="OBJECTS">
    <path class="cls-1" d="M12.99,5.67s.02-.05.01-.08c0-.02-.02-.03-.03-.05-.02-.04-.04-.08-.07-.11-.03-.04-.06-.07-.1-.09-.02-.01-.02-.03-.04-.04L.57.03C.41-.04.21,0,.1.15c-.12.14-.13.34-.03.49l3.27,5.04L.07,10.71c-.1.15-.09.35.03.49.08.09.2.15.31.15.05,0,.11-.01.16-.03l12.19-5.26s.03-.03.04-.04c.04-.02.07-.05.1-.09.03-.04.05-.07.07-.11,0-.02.03-.03.03-.05,0-.03-.01-.05-.01-.08Z"/>
  </g>
</svg>