<?xml version="1.0" encoding="UTF-8"?>
<svg id="_Слой_2" data-name="Слой 2" xmlns="http://www.w3.org/2000/svg" xmlns:xlink="http://www.w3.org/1999/xlink" viewBox="0 0 17.58 18.54">
  <defs>
    <style>
      .cls-1 {
        fill: #fff;
      }

      .cls-2 {
        fill: url(#linear-gradient);
      }
    </style>
    <linearGradient id="linear-gradient" x1="8.79" y1="1.47" x2="8.79" y2="45.42" gradientUnits="userSpaceOnUse">
      <stop offset="0" stop-color="#9e0a6f"/>
      <stop offset="1" stop-color="#f1b96a"/>
    </linearGradient>
  </defs>
  <g id="OBJECTS">
    <g>
      <path class="cls-2" d="M15.47,0H2.11C.94,0,0,.94,0,2.11v11.27c0,1.17.94,2.11,2.11,2.11h5.15l1.52,3.05,1.52-3.05h5.15c1.17,0,2.11-.94,2.11-2.11V2.11c0-1.17-.94-2.11-2.11-2.11Z"/>
      <g>
        <path class="cls-1" d="M8.79,3.79c-1.17,0-2.12.95-2.12,2.12s.95,2.12,2.12,2.12,2.12-.95,2.12-2.12-.95-2.12-2.12-2.12ZM8.79,7.22c-.72,0-1.3-.59-1.3-1.3s.59-1.3,1.3-1.3,1.3.59,1.3,1.3-.58,1.3-1.3,1.3Z"/>
        <path class="cls-1" d="M8.79,2.1c-2.1,0-3.82,1.71-3.82,3.82,0,.23.08.78.09.8.61,3.34,3.3,6.51,3.42,6.64.08.09.19.14.31.14s.23-.05.31-.14c.11-.13,2.8-3.3,3.41-6.63.01-.05.09-.59.09-.82,0-2.1-1.71-3.82-3.82-3.82ZM11.71,6.57c-.45,2.47-2.2,4.94-2.92,5.87-.72-.93-2.47-3.39-2.92-5.87,0-.05-.08-.49-.08-.66,0-1.65,1.34-2.99,3-2.99s3,1.34,3,2.99c0,.16-.07.6-.08.66Z"/>
      </g>
    </g>
  </g>
</svg>