<?xml version="1.0" encoding="UTF-8"?>
<svg id="_Слой_2" data-name="Слой 2" xmlns="http://www.w3.org/2000/svg" viewBox="0 0 13.32 18.99">
  <defs>
    <style>
      .cls-1 {
        fill: #fff;
      }
    </style>
  </defs>
  <g id="OBJECTS">
    <g>
      <path class="cls-1" d="M.99,6.89c-.2.22-.18.56.04.75.1.09.23.14.36.14.15,0,.29-.06.4-.17.66-.72,1.6-2.53.47-4.25-.92-1.4-.12-2.36-.02-2.46.2-.21.19-.55-.02-.76-.21-.2-.55-.2-.76.02-.53.56-1.22,2.06-.09,3.79.95,1.44-.31,2.87-.37,2.94Z"/>
      <path class="cls-1" d="M4.55,6.89c-.2.22-.18.56.04.75.1.09.23.14.36.14.15,0,.29-.06.4-.17.66-.72,1.6-2.53.47-4.25-.92-1.4-.12-2.36-.02-2.46.2-.21.19-.55-.02-.76-.21-.2-.55-.2-.76.02-.53.56-1.22,2.06-.09,3.79.95,1.44-.31,2.87-.37,2.94Z"/>
      <path class="cls-1" d="M8.11,6.89c-.2.22-.18.56.04.75.1.09.23.14.36.14.15,0,.29-.06.4-.17.66-.72,1.6-2.53.47-4.25-.92-1.4-.12-2.36-.03-2.46.2-.21.19-.55-.02-.76-.21-.2-.55-.2-.76.02-.53.56-1.22,2.06-.09,3.79.95,1.44-.31,2.87-.37,2.94Z"/>
      <path class="cls-1" d="M6.08,18.99h-1.51c-2.52,0-4.56-2.05-4.56-4.56v-4.05h10.64v4.05c0,2.52-2.05,4.56-4.56,4.56ZM11.54,15.79c.11-.44.17-.89.17-1.37v-2.81c.92.24,1.61,1.07,1.61,2.07,0,1.05-.76,1.92-1.78,2.1Z"/>
    </g>
  </g>
</svg>