<?xml version="1.0" encoding="UTF-8"?>
<svg id="_Слой_2" data-name="Слой 2" xmlns="http://www.w3.org/2000/svg" xmlns:xlink="http://www.w3.org/1999/xlink" viewBox="0 0 195.56 423.72">
  <defs>
    <style>
      .cls-1 {
        fill: #272b40;
      }

      .cls-2, .cls-3, .cls-4 {
        fill: none;
      }

      .cls-3 {
        stroke: url(#linear-gradient);
        stroke-linecap: round;
        stroke-linejoin: round;
        stroke-width: 2px;
      }

      .cls-4 {
        stroke: #2d324a;
        stroke-miterlimit: 10;
        stroke-width: .5px;
      }

      .cls-5 {
        fill: #1e2130;
      }

      .cls-6 {
        clip-path: url(#clippath);
      }
    </style>
    <clipPath id="clippath">
      <rect class="cls-2" width="195.56" height="423.72" rx="10.82" ry="10.82"/>
    </clipPath>
    <linearGradient id="linear-gradient" x1="-9.48" y1="150.11" x2="202.67" y2="150.11" gradientUnits="userSpaceOnUse">
      <stop offset="0" stop-color="#9e0a6f"/>
      <stop offset="1" stop-color="#f1b96a"/>
    </linearGradient>
  </defs>
  <g id="OBJECTS">
    <g class="cls-6">
      <g>
        <path class="cls-5" d="M203.52,167.59c-3.96,4.27-10.81,4.64-16.26,2.56-5.44-2.08-9.85-6.12-14.31-9.88-4.45-3.76-9.32-7.42-15.05-8.48-7.44-1.38-14.91,1.86-22.46,2.3-11.82.69-23.74-6.21-29.04-16.8-5.88-11.75-3.77-26.25-9.55-38.04-3.17-6.46-8.53-11.68-11.46-18.25-2.93-6.57-2.34-15.82,4.04-19.14,8.55-4.45,17.95-9.9,27.56-9.21,9.61.7,18.85,3.85,28.18,6.27,9.33,2.42,19.18,4.12,28.56,1.88,6.35-1.52,12.58-4.83,19.03-3.81,8.71,1.38,14.3,10.19,16.46,18.74,2.96,11.76,1.61,24.13.24,36.18-2.07,18.22-3.86,37.46-5.93,55.68Z"/>
        <path class="cls-1" d="M183.29,148.99c-5.85-2.33-10.57-6.75-15.39-10.81-4.82-4.05-10.18-7.95-16.42-8.83-7.74-1.09-16.1,2.58-23.21-.67-5.89-2.69-8.91-9.35-9.99-15.73-1.09-6.38-.75-12.98-2.38-19.24-1.72-6.66-5.62-13.57-3.07-19.96,2.52-6.31,10.54-8.8,17.2-7.5,6.66,1.31,12.37,5.41,18.13,9.01,5.76,3.6,12.24,6.88,19,6.24,7.12-.68,13.45-5.65,20.59-5.54,7.17.11,13.4,5.51,16.63,11.92,3.22,6.41,4.01,13.72,4.74,20.85.68,6.64,1.37,13.33.69,19.97-1.43,14.01-10.94,26.49-26.53,20.29Z"/>
      </g>
      <g>
        <path class="cls-5" d="M17.28,131.83c7.47-1.68,16.25.1,20.74,6.3,7.29,10.06-.02,25.13,5.58,36.22,5.16,10.22,18.78,12.68,26.69,20.97,8.66,9.08,8.64,24.28,1.94,34.89-6.7,10.61-18.75,16.96-31.06,19.37-12.31,2.42-25.02,1.36-37.49,0-3.71-.4-7.66-.93-10.53-3.32-4.36-3.63-4.7-10.16-4.11-15.8,1.36-13.16,5.75-25.81,7.94-38.85,2.4-14.32.89-27.5-.55-41.74-1.06-10.5,11.75-15.98,20.85-18.03Z"/>
        <path class="cls-1" d="M23.54,235.7c-3.91,1.25-7.99,2.43-12.08,1.95-4.08-.48-8.19-3.05-9.24-7.02-.71-2.69.06-5.53.82-8.21,2.58-9.03,5.16-18.05,7.73-27.08,1.04-3.62,2.25-7.52,5.29-9.75,4.5-3.29,11.03-1.44,15.47,1.93,4.45,3.37,7.83,8.04,12.5,11.08,3.97,2.59,8.77,3.93,12.22,7.18,5.74,5.4,5.85,15.39.8,21.44-3.71,4.45-9.65,6.6-15.36,6.33-6.7-.32-11.56.03-18.18,2.14Z"/>
        <path class="cls-1" d="M10.6,166.87c-2.82-2.52-4.64-6.33-4.15-10.08.4-3.04,2.22-5.7,4.17-8.08,1.93-2.36,4.31-4.73,7.35-5.05,3.91-.42,7.34,2.75,9.19,6.21,2.59,4.84,3.21,10.7,1.68,15.98-.48,1.67-1.22,3.34-2.56,4.46-4.17,3.47-12.35-.46-15.68-3.43Z"/>
      </g>
      <g>
        <path class="cls-5" d="M127.33,259.8c-3.56-1.11-7.14-2.43-10.02-4.79-2.88-2.36-4.98-5.96-4.68-9.68.34-4.13,3.55-7.54,7.2-9.49,3.65-1.95,7.78-2.77,11.74-3.98,8.31-2.53,16.07-6.87,22.57-12.64,4.28-3.8,8.24-8.34,13.66-10.18,7.11-2.42,14.88.4,21.62,3.7,6.16,3.01,12.23,6.54,16.82,11.64,4.59,5.1,7.58,12,6.65,18.8-2.03,14.76-19.03,18.89-31.07,20.71-18.16,2.74-36.95,1.38-54.49-4.1Z"/>
        <path class="cls-1" d="M153.69,258.86c-3.61-.97-7.76-2.97-8.08-6.7-.28-3.24,2.52-5.81,5.07-7.82,5.55-4.38,11.1-8.76,16.65-13.15,4.19-3.31,8.67-6.74,13.96-7.43,5.79-.75,11.7,2.1,15.43,6.58,3.73,4.48,5.46,10.4,5.66,16.23.09,2.44-.1,4.98-1.24,7.13-1.92,3.63-16.8,6.33-21.34,6.9-8.71,1.1-17.63.53-26.11-1.74Z"/>
      </g>
      <path class="cls-5" d="M-10.63,84.82c1.82,13.67,9.87,27.4,22.9,31.91,7.15,2.47,15,1.96,22.43.52,4.5-.88,9.15-2.21,12.39-5.45,6.97-7,4.21-18.87,7.69-28.11,2.43-6.45,8.05-12.04,7.65-18.92-.48-8.47-9.55-13.46-14.04-20.65-5.59-8.94-4.16-21.63-11.65-29.04-7.24-7.16-20.02-5.55-27.8,1.02C-7.6,30.03-13.31,64.75-10.63,84.82Z"/>
      <g>
        <g>
          <path class="cls-4" d="M-17.65,243.92c-2.2-6-1.71-12.68-.19-18.89,1.53-6.21,4.04-12.12,5.87-18.24,3.6-12.02,4.53-24.82,2.72-37.23-.97-6.64-2.72-13.33-1.8-19.98,1.12-8.1,6.29-15.37,13.15-19.81,6.87-4.44,15.28-6.17,23.44-5.67,7.62.47,15.47,3.06,20.5,8.8,10.28,11.74,5.18,31.28,14.33,43.92,6.28,8.67,18.16,12.4,23.26,21.81,3.01,5.54,3.12,12.25,1.98,18.45-2.01,10.89-7.77,21.05-16.08,28.38-9.55,8.42-22.13,12.91-34.79,14.18-14.97,1.5-45.98,1.72-52.39-15.73Z"/>
          <path class="cls-4" d="M4.5,139.38c5.7-4.03,12.75-6.13,19.8-5.7,6.6.41,13.15,3.12,17.33,8.21,8.23,10.03,4.56,25.97,11.58,36.76,4.82,7.41,13.9,11.08,18.04,18.98,2.6,4.96,3.19,10.73,2.81,16.12-.4,5.92-1.94,11.64-4.7,16.88-1.66,3.16-3.8,6.13-6.45,8.71-3.86,3.74-8.25,5.54-12.98,6.96-5.85,1.75-12.19,3.11-18.46,3.93-12.03,1.57-35.33,1.72-41.78-11.41-1.13-2.29-1.75-4.98-1.68-7.63.07-2.65.6-5.27,1.11-7.91.21-1.11.42-2.21.62-3.3,1.16-6.26,1.89-12.35,3.28-18.53,2.19-9.79,3.31-19.99,2.07-29.98-.66-5.34-1.88-10.71-1.06-16.05.99-6.49,5.12-12.28,10.46-16.06Z"/>
          <path class="cls-4" d="M6.9,148.99c4.53-3.66,10.23-6.09,16.16-5.73,5.58.35,10.84,3.18,14.16,7.62,6.2,8.29,3.93,20.66,8.83,29.61,3.36,6.14,9.62,9.77,12.83,16.16,2.19,4.38,3.26,9.21,3.65,13.79.45,5.04.08,9.97-1.54,14.75-.98,2.87-2.48,5.68-4.66,8.05-3.45,3.75-7.39,4.37-11.65,4.94-5.22.7-10.92,1.71-16.43,2.66-9.09,1.57-25.31,1.88-31.16-7.09-1.39-2.13-2.14-4.89-1.9-7.55.24-2.67,1.07-5.23,1.62-7.89.23-1.12.41-2.24.55-3.34.79-6.32-.2-12.53.69-18.82,1.05-7.47,2.09-15.16,1.43-22.72-.35-4.05-1.04-8.1-.32-12.12.87-4.89,3.93-9.23,7.76-12.31Z"/>
          <path class="cls-4" d="M9.3,158.6c3.34-3.33,7.7-6.05,12.52-5.75,4.56.28,8.54,3.22,10.99,7.02,4.2,6.53,3.3,15.36,6.08,22.45,1.91,4.87,5.34,8.47,7.61,13.33,1.78,3.8,3.33,7.69,4.48,11.46,1.29,4.17,2.1,8.3,1.61,12.61-.3,2.59-1.15,5.23-2.88,7.4-3.02,3.78-6.53,3.2-10.32,2.92-4.6-.33-9.65.25-14.4,1.38-6.16,1.46-15.94,2.34-20.55-2.76-1.76-1.94-2.52-4.79-2.11-7.48.42-2.68,1.55-5.19,2.14-7.87.25-1.13.4-2.26.47-3.39.42-6.38-2.14-12.65-1.9-19.11.19-5.08.87-10.34.78-15.47-.05-2.75-.19-5.49.42-8.19.74-3.29,2.72-6.22,5.07-8.56Z"/>
          <path class="cls-4" d="M21.74,222.02c-3.27,1.21-6.94,3.34-9.94,1.56-2.38-1.41-2.91-4.7-2.32-7.4s2.02-5.16,2.66-7.85c1.8-7.61-2.93-15.1-4.09-22.83-.89-5.95.43-12.21,3.66-17.29,1.99-3.13,5.17-6.01,8.87-5.78,3.53.22,6.29,3.23,7.82,6.43,3.82,7.98,2.35,17.62,5.72,25.81,2.81,6.83,8.88,12.31,10.08,19.6.38,2.3.2,4.8-1.1,6.74-2.55,3.83-5.67,2.04-8.99.91-3.97-1.36-8.42-1.35-12.37.11Z"/>
        </g>
        <g>
          <path class="cls-4" d="M137.55,274.97c-9.77-1.41-19.63-4.8-26.6-11.79-6.97-6.99-10.35-18.14-6.23-27.12,3.25-7.09,10.35-11.6,17.5-14.73,7.15-3.13,14.79-5.32,21.24-9.72,6.51-4.44,11.62-11,18.87-14.09,6.75-2.88,14.55-2.31,21.56-.15,14.51,4.46,26.98,16.16,30.78,30.86,2.98,11.54.03,24.64-7.83,33.64-9.26,10.6-28.44,11.55-41.68,13.11-9.16,1.08-18.46,1.31-27.6,0Z"/>
          <path class="cls-4" d="M149.51,217c5.51-3.78,9.99-9.15,16.06-11.85.21-.09.42-.18.64-.27,5.96-2.42,12.81-1.76,18.81.33,11.91,4.16,21.98,14.04,24.67,26.3,2.14,9.72-.78,20.53-7.6,27.91-8.05,8.7-24.21,9.69-35.61,11.05-7.83.93-15.76,1.14-23.53.01-2.45-.35-4.89-.85-7.28-1.53-5.76-1.64-11.2-4.39-15.23-8.68-5.6-5.97-8.13-15.22-4.45-22.52,2.23-4.44,6.32-7.55,10.8-10,1.48-.81,3.01-1.54,4.54-2.22,6.14-2.7,12.64-4.74,18.18-8.54Z"/>
          <path class="cls-4" d="M155.56,222.4c4.72-3.27,8.71-7.73,13.98-9.93.18-.08.37-.15.55-.22,5.17-1.95,11.07-1.22,16.05.82,9.32,3.82,16.96,11.91,18.57,21.73,1.29,7.9-1.58,16.43-7.38,22.19-6.84,6.79-19.98,7.83-29.53,8.98-6.49.78-13.06.96-19.45.04-2.03-.29-4.05-.71-6.02-1.27-4.75-1.36-9.28-3.71-12.4-7.35-4.24-4.94-5.89-12.3-2.68-17.93,2.03-3.55,5.59-5.91,9.36-7.87,1.25-.65,2.54-1.26,3.82-1.82,5.14-2.27,10.49-4.16,15.12-7.36Z"/>
          <path class="cls-4" d="M161.62,227.79c3.94-2.76,7.43-6.32,11.89-8.01.15-.06.31-.11.47-.17,4.38-1.49,9.32-.71,13.29,1.31,6.73,3.42,11.94,9.8,12.47,17.17.44,6.09-2.38,12.32-7.15,16.46-5.64,4.89-15.75,5.97-23.46,6.92-5.16.63-10.37.78-15.37.06-1.61-.23-3.21-.56-4.75-1.01-3.75-1.09-7.35-3.03-9.57-6.03-2.88-3.9-3.63-9.37-.9-13.34,1.83-2.66,4.85-4.26,7.93-5.75,1.02-.49,2.06-.97,3.09-1.43,4.13-1.84,8.34-3.58,12.06-6.18Z"/>
          <path class="cls-4" d="M167.67,233.19c3.16-2.25,6.14-4.9,9.81-6.09.13-.04.25-.08.38-.12,3.59-1.03,7.59-.25,10.53,1.8,4.17,2.9,6.88,7.7,6.37,12.6-.44,4.29-3.19,8.21-6.92,10.74-4.43,2.98-11.52,4.11-17.38,4.85-3.83.48-7.67.6-11.29.08-1.19-.17-2.36-.42-3.49-.75-2.74-.81-5.44-2.33-6.74-4.71-1.54-2.83-1.32-6.42.88-8.74,1.67-1.77,4.11-2.62,6.49-3.63.79-.34,1.59-.68,2.37-1.04,3.13-1.41,6.19-3,9-5Z"/>
          <path class="cls-4" d="M162.34,252.09c-1.74-.53-3.6-1.6-3.91-3.39-.29-1.74,1.08-3.37,2.65-4.15,1.58-.78,3.38-.97,5.05-1.5,2.81-.89,5.21-2.71,7.58-4.46s4.86-3.48,7.72-4.16c2.87-.68,6.23-.07,8.07,2.23,1.78,2.22,1.7,5.57.27,8.04-1.43,2.46-3.99,4.11-6.69,5.01-5.91,1.97-14.67,4.26-20.75,2.4Z"/>
        </g>
        <g>
          <path class="cls-4" d="M-3.63,81.75c-1.48-7.05-1.31-14.25-.1-21.35,1.21-7.11,3.47-14.12,6.17-20.8,1.89-4.69,4.08-9.4,7.66-12.98,3.58-3.58,8.82-5.86,13.75-4.7,5.96,1.41,9.79,7.26,11.84,13.04,2.05,5.77,3.01,12.03,6.25,17.23,2.24,3.6,5.49,6.54,7.34,10.35,3.04,6.28,1.78,13.7.45,20.55-1.41,7.27-2.94,14.81-7.35,20.75-7.93,10.69-18.51,9.6-27.56,3.63-9.05-5.98-16.59-16.84-18.45-25.71Z"/>
          <path class="cls-4" d="M13.27,40.98c2.22-2.28,5.41-3.81,8.48-3.45,3.74.43,6.48,3.34,8.24,6.58,1.78,3.27,2.78,7.1,4.75,10.5.97,1.67,2.15,3.19,3.14,4.81.39.65.76,1.32,1.07,2.04,1.69,3.93,1.26,8.66.66,13.16-.62,4.66-1.44,9.49-3.76,13.48-4.4,7.56-10.83,8.97-18.01,5.3-6.2-3.17-11.14-10.08-12.66-16.03-1.29-5.06-1.2-10.34-.36-15.5.73-4.4,2.04-8.77,3.71-12.9,1.17-2.9,2.57-5.77,4.75-8.01Z"/>
          <path class="cls-4" d="M20.85,79.37c-3.2-.62-5.73-3.3-6.87-6.35-1.14-3.05-1.09-6.42-.63-9.65.41-2.88,1.18-5.83,3.1-8.02,1.92-2.19,5.23-3.37,7.84-2.08,2.27,1.13,3.4,3.71,4.08,6.16.81,2.93,1.66,8.44.94,12.96-.72,4.52-3,8.04-8.45,6.98Z"/>
        </g>
        <path class="cls-4" d="M-18.32,260.98c17.01,7.23,35.73,11.08,54.1,8.95,18.36-2.13,33.35-9.89,45.1-24.15,7.19-8.71,11.98-19.59,12.45-30.88.48-11.28-.66-23.61-8.85-31.39-6.14-5.82-14.51-9.62-18.57-17.05-5.63-10.28-.93-23.71-5.87-34.35-3.6-7.76-11.82-12.53-20.18-14.3-8.37-1.77-17.03-1.01-25.57-.51s-17.32.7-25.39-2.11c-12.71,1.14-21.93,14.01-26.16,26.06-13.88,39.53-6.04,86.08,18.94,119.72Z"/>
        <path class="cls-4" d="M209.9,201.35c-7.58-6.54-16.19-12.11-25.82-14.85-9.63-2.74-20.36-2.44-29.22,2.22-7.61,4-13.46,10.94-21.34,14.38-6.61,2.9-14.24,3.14-20.56,6.61-6.68,3.67-11.06,10.49-14.03,17.51-3.02,7.15-4.88,14.88-4.57,22.64.32,7.75,2.93,15.53,8.02,21.39,6.65,7.64,16.75,11.33,26.67,13.41,23.29,4.9,48.06,2.46,69.95-6.88,24.58-10.49,31.14-58.97,10.9-76.43Z"/>
        <g>
          <path class="cls-4" d="M132.33,106.16c-.62-4.87.53-9.89-.42-14.71-.44-2.21-1.31-4.43-.91-6.65.71-3.92,5.34-6.12,9.27-5.51,3.94.61,7.23,3.25,10.13,5.98,2.9,2.73,5.73,5.71,9.38,7.29,4.44,1.92,9.47,1.53,14.3,1.76,4.83.22,10.13,1.39,12.97,5.3,2.58,3.55,2.4,8.34,2.05,12.71-.39,4.81-1.08,10.09-4.65,13.33-3.78,3.43-9.67,3.39-14.45,1.61s-8.86-5-13.28-7.54c-5.37-3.08-9.6-2.7-15.36-3.46-5.14-.68-8.41-5.18-9.04-10.12Z"/>
          <path class="cls-4" d="M123.54,74.31c1.99-2.74,5.67-4.46,9.67-5.13,1.35-.23,2.73-.34,4.06-.32,5.28.08,10.06,1.34,14.34,3.52,3.68,1.88,7.11,4.53,11.35,5.96,5.17,1.74,10.87,1.5,16,2.85,5.25,1.39,9.27,4.96,12.11,9.3.74,1.14,1.41,2.36,1.98,3.69,2.45,5.82,2.33,12.7,1.96,19.24-.27,4.88-.72,9.95-1.98,14.53-.6,2.17-1.54,4.21-3,5.97-2.13,2.57-5.49,2.59-7.3,2.66-3.63.15-7.62-1.14-11.34-2.19-6.37-1.81-12.21-4.33-17.92-4.91-1.49-.15-2.92.05-4.44,0-1.6-.05-3.36-.3-4.79-.99-1.49-.72-2.48-1.69-3.84-2.45-2.37-1.31-5.77-1.57-8.38-2.99-3.05-1.65-3.72-4.8-5.92-7.65-1.12-1.44-2.56-2.69-3.29-4.39-.95-2.18-.54-4.52-.46-6.89.13-3.61-.4-7.29-.84-10.87-.45-3.59-.85-7.37-.6-10.86.23-3.21,1-5.8,2.66-8.08Z"/>
          <path class="cls-4" d="M116.09,63.83c3.32-2.57,8.09-4.02,13.09-4.8,1.7-.27,3.42-.47,5.09-.59,6.61-.46,12.75-.49,18.54,1.05,4.31,1.15,8.5,3.35,13.31,4.63,5.91,1.55,12.27,1.71,17.69,3.95,6.7,2.77,10.61,8.97,13.33,15.4.71,1.68,1.34,3.43,1.88,5.26,2.32,8.08,2.26,17.07,1.88,25.77-.28,6.51-.78,13.17-1.96,19.42-.56,2.95-1.58,5.77-3.36,8.24-2.67,3.72-7.5,2.47-8.99,2.72-4.34-1.1-9.19-2.31-13.85-3.38-7.96-1.84-15.68-3.45-22.55-2.29-1.99.34-3.82,1.14-5.9,1.44-2.14.3-4.63.1-6.47-1.07-1.89-1.2-2.79-3.01-4.4-4.39-2.86-2.43-7.71-2.85-10.78-5.36-3.71-3.02-3.07-8.15-5.98-12.23-1.47-2.06-3.72-3.62-4.69-5.99-1.24-3.05-.02-6.27.35-9.52.54-4.78-.61-9.67-1.6-14.38-.99-4.71-1.84-9.8-.86-14.37.9-4.2,3.22-7.18,6.23-9.51Z"/>
          <path class="cls-4" d="M108.64,53.35c4.62-2.45,10.5-3.58,16.51-4.47,2.06-.31,4.11-.61,6.13-.86,7.95-.99,15.39-2.19,22.75-1.41,4.91.52,9.89,2.18,15.27,3.3,6.64,1.37,13.62,2,19.39,5.04,8.1,4.27,11.97,12.97,14.55,21.51.68,2.21,1.27,4.49,1.78,6.84,2.19,10.34,2.19,21.43,1.8,32.29-.3,8.14-.84,16.39-1.94,24.32-.53,3.73-1.62,7.34-3.71,10.51-3.21,4.87-9.49,2.58-10.68,2.77-5.06-1.9-10.76-3.49-16.35-4.58-9.55-1.87-19.12-2.46-27.19.34-2.47.86-4.72,2.23-7.36,2.87-2.69.65-5.91.5-8.15-1.15-2.29-1.68-3.1-4.34-4.97-6.33-3.34-3.56-9.63-4.14-13.18-7.73-4.35-4.41-2.42-11.5-6.04-16.81-1.83-2.69-4.88-4.55-6.08-7.59-1.54-3.91.5-8.03,1.16-12.16.95-5.95-.83-12.06-2.35-17.88-1.52-5.83-2.83-12.24-1.13-17.88,1.57-5.2,5.41-8.61,9.81-10.94Z"/>
          <path class="cls-4" d="M101.19,42.86c5.93-2.37,12.91-3.13,19.92-4.14,2.41-.35,4.8-.74,7.16-1.13,9.29-1.53,18.09-4.67,26.96-3.87,5.5.49,11.27,1,17.23,1.97,7.38,1.19,14.94,2.34,21.08,6.14,9.45,5.84,13.31,16.98,15.77,27.62.64,2.75,1.2,5.56,1.67,8.41,2.06,12.61,2.12,25.8,1.71,38.82-.31,9.76-.89,19.62-1.93,29.21-.49,4.51-1.66,8.9-4.06,12.77-3.74,6.02-11.48,2.68-12.37,2.83-5.79-2.69-12.33-4.66-18.86-5.77-11.14-1.9-22.52-1.44-31.83,2.96-2.94,1.39-5.62,3.32-8.82,4.3-3.23.99-7.18.9-9.83-1.23-2.7-2.16-3.4-5.66-5.53-8.27-3.82-4.68-11.55-5.42-15.57-10.1-4.98-5.79-1.77-14.85-6.09-21.39-2.18-3.31-6.04-5.48-7.47-9.19-1.84-4.78,1.02-9.78,1.97-14.79,1.36-7.12-1.04-14.44-3.1-21.39-2.06-6.95-3.82-14.68-1.4-21.39,2.24-6.2,7.6-10.06,13.38-12.37Z"/>
          <path class="cls-4" d="M93.74,32.38c7.25-2.29,15.32-2.69,23.34-3.81,2.76-.39,5.49-.87,8.19-1.39,10.63-2.06,20.74-5.32,31.17-6.34,6.16-.6,12.66-.18,19.2.64,8.11,1,16.24,2.69,22.78,7.24,10.74,7.46,14.66,20.99,16.99,33.73.61,3.29,1.13,6.62,1.57,9.99,1.94,14.87,2.06,30.16,1.63,45.34-.32,11.39-.95,22.84-1.91,34.11-.45,5.29-1.68,10.47-4.42,15.04-4.26,7.18-13.47,2.79-14.06,2.88-6.51-3.49-13.9-5.84-21.37-6.97-12.73-1.93-25.89-.41-36.47,5.59-3.41,1.93-6.53,4.41-10.28,5.73-3.77,1.33-8.46,1.3-11.51-1.31-3.1-2.64-3.7-6.99-6.09-10.21-4.29-5.81-13.47-6.71-17.97-12.47-5.61-7.18-1.12-18.2-6.15-25.98-2.54-3.93-7.2-6.41-8.86-10.79-2.14-5.65,1.53-11.54,2.78-17.43,1.76-8.3-1.25-16.83-3.86-24.9-2.6-8.08-4.81-17.11-1.66-24.9,2.91-7.19,9.8-11.53,16.95-13.8Z"/>
          <path class="cls-4" d="M86.29,21.9c8.57-2.22,17.74-2.25,26.76-3.49,3.11-.43,6.18-1,9.23-1.66,11.97-2.6,23.46-6.81,35.38-8.8,6.81-1.14,14.04-1.36,21.16-.69,8.85.82,17.51,3.04,24.47,8.33,12,9.11,16.01,25.01,18.21,39.84.57,3.83,1.06,7.69,1.47,11.57,1.81,17.13,1.99,34.53,1.55,51.87-.33,13.02-1.01,26.07-1.89,39.01-.41,6.06-1.72,12.04-4.77,17.31-4.8,8.33-15.45,2.89-15.75,2.94-7.23-4.28-15.47-7.01-23.88-8.16-14.32-1.96-29.24.62-41.11,8.21-3.86,2.47-7.43,5.49-11.74,7.16-4.32,1.67-9.73,1.7-13.19-1.39-3.5-3.12-4.01-8.31-6.65-12.15-4.77-6.94-15.38-8.01-20.37-14.84-6.23-8.58-.47-21.55-6.2-30.55-2.9-4.55-8.36-7.33-10.26-12.39-2.44-6.51,2.04-13.29,3.59-20.06,2.16-9.47-1.47-19.21-4.61-28.41-3.14-9.2-5.8-19.55-1.93-28.42,3.58-8.19,12-13.01,20.52-15.23Z"/>
          <path class="cls-4" d="M205.99,186.41c-21.49-13.71-51.22-13.1-72.13,1.49-4.32,3.01-8.33,6.58-13.2,8.59-4.86,2.01-11,2.1-14.87-1.47-3.91-3.61-4.31-9.63-7.22-14.09-5.25-8.06-17.3-9.29-22.76-17.2-6.87-9.96.18-24.9-6.26-35.14-3.25-5.18-9.52-8.26-11.65-14-2.73-7.38,2.56-15.05,4.4-22.7,2.57-10.65-1.68-21.6-5.36-31.92-3.68-10.32-6.8-21.99-2.19-31.93,4.25-9.19,14.2-14.5,24.09-16.65,9.89-2.16,20.15-1.8,30.18-3.16,17.05-2.3,33.05-9.46,49.85-13.2,16.79-3.74,35.96-3.47,49.29,7.41,13.22,10.78,17.35,29.02,19.43,45.95,4.68,38.25,3.07,76.96.96,115.44-.38,6.84-1.76,13.6-5.12,19.57-5.33,9.48-17.44,3-17.44,3Z"/>
        </g>
        <path class="cls-4" d="M4.24,4.88c4.49,2.66,10.14.6,15.35.43,5.77-.19,11.57,2.21,15.53,6.4,2.06,2.18,3.94,5,6.91,5.47,4,.63,7.03-3.27,9.69-6.32C56.47,5.44,62.94,1.54,69.95-.13c3.55-.85,8.19-2.14,8.3-5.79.06-1.95-1.45-3.68-3.23-4.49-1.78-.81-3.79-.88-5.75-.95-17.6-.59-35.21-1.29-52.82-1.76-4.66-.12-9.05-.51-12.56,3.04C.05-6.18-1.85,1.83,4.24,4.88Z"/>
      </g>
      <path class="cls-3" d="M-8.48,96.07c2.82-2.66,5.8-5.41,9.55-6.39,3.75-.98,8.44.52,9.69,4.18.83,2.46-.05,5.13-.43,7.7-.38,2.57.08,5.74,2.43,6.86,1.85.88,4.04.09,5.83-.9,3.31-1.83,6.24-4.3,9.65-5.94,3.41-1.64,7.6-2.34,10.89-.48,2.42,1.36,3.95,3.86,5.15,6.36,1.75,3.63,3.02,7.49,3.77,11.46.62,3.27,1.05,6.92,3.57,9.09,2.48,2.14,6.24,2.06,9.34,1.01s5.87-2.93,8.93-4.12c4.15-1.61,9.01-1.85,12.93.24,3.92,2.1,6.53,6.85,5.35,11.14-1.38,5.04-7.25,8.3-7.47,13.52-.2,4.76,4.66,8.36,9.38,9.01,4.72.65,9.46-.69,14.21-1,4.75-.31,10.17.8,12.71,4.82,3.32,5.24.08,11.96-2.38,17.66-3.69,8.55-5.04,19.66,1.6,26.19,4.77,4.69,12.5,5.38,18.73,2.98,6.23-2.41,11.14-7.42,14.93-12.93,2.58-3.74,4.79-7.81,8.16-10.85,3.37-3.04,8.35-4.85,12.51-3.04,4.46,1.94,6.38,7.11,9.63,10.73,5.25,5.84,14.77,7.26,21.49,3.2"/>
    </g>
  </g>
</svg>