<?xml version="1.0" encoding="UTF-8"?>
<svg id="_Слой_2" data-name="Слой 2" xmlns="http://www.w3.org/2000/svg" xmlns:xlink="http://www.w3.org/1999/xlink" viewBox="0 0 17.58 18.54">
  <defs>
    <style>
      .cls-1 {
        fill: #fff;
      }

      .cls-2 {
        fill: url(#linear-gradient);
      }
    </style>
    <linearGradient id="linear-gradient" x1="8.79" y1="2.85" x2="8.79" y2="51.92" gradientUnits="userSpaceOnUse">
      <stop offset="0" stop-color="#9e0a6f"/>
      <stop offset="1" stop-color="#f1b96a"/>
    </linearGradient>
  </defs>
  <g id="OBJECTS">
    <g>
      <path class="cls-2" d="M15.47,3.05h-5.15l-1.52-3.05-1.52,3.05H2.11c-1.17,0-2.11.94-2.11,2.11v11.27c0,1.17.94,2.11,2.11,2.11h13.36c1.17,0,2.11-.94,2.11-2.11V5.16c0-1.17-.94-2.11-2.11-2.11Z"/>
      <g>
        <path class="cls-1" d="M8.79,11.09c-1.17,0-2.12-.95-2.12-2.12s.95-2.12,2.12-2.12,2.12.95,2.12,2.12-.95,2.12-2.12,2.12ZM8.79,7.67c-.72,0-1.3.59-1.3,1.3s.58,1.3,1.3,1.3,1.3-.58,1.3-1.3-.58-1.3-1.3-1.3Z"/>
        <path class="cls-1" d="M8.79,16.56h0c-.12,0-.23-.05-.31-.14-.11-.13-2.8-3.3-3.41-6.64,0-.03-.09-.57-.09-.8,0-2.1,1.71-3.82,3.82-3.82s3.82,1.71,3.82,3.82c0,.23-.08.77-.09.82-.61,3.33-3.3,6.5-3.41,6.63-.08.09-.19.14-.31.14ZM8.79,5.98c-1.65,0-2.99,1.34-2.99,2.99,0,.17.07.6.08.65.45,2.48,2.2,4.94,2.92,5.87.72-.93,2.47-3.39,2.92-5.87.01-.06.08-.49.08-.66,0-1.65-1.34-2.99-3-2.99Z"/>
      </g>
    </g>
  </g>
</svg>