<?xml version="1.0" encoding="UTF-8"?>
<svg id="_Слой_2" data-name="Слой 2" xmlns="http://www.w3.org/2000/svg" viewBox="0 0 12.41 10.55">
  <defs>
    <style>
      .cls-1 {
        fill: #fff;
      }
    </style>
  </defs>
  <g id="OBJECTS">
    <path class="cls-1" d="M11.72,2.04c-.63-.99-1.62-1.68-2.77-1.94-2.38-.52-4.74.98-5.26,3.35-.27,1.21,0,2.41.62,3.37L.22,9.64c-.23.16-.29.47-.13.7.1.14.25.22.41.22.1,0,.2-.03.28-.09l4.18-2.87c.56.54,1.26.95,2.08,1.13.32.07.64.11.96.11.83,0,1.65-.24,2.36-.69.99-.63,1.68-1.62,1.94-2.77.25-1.15.05-2.33-.59-3.33ZM11.33,5.15h0c-.2.89-.73,1.65-1.5,2.14-.77.49-1.68.65-2.57.45-1.84-.41-3-2.23-2.59-4.07.35-1.59,1.77-2.68,3.33-2.68.24,0,.49.03.74.08.89.2,1.65.73,2.14,1.5.49.77.65,1.68.45,2.57Z"/>
  </g>
</svg>