<?xml version="1.0" encoding="UTF-8"?>
<svg id="_Слой_2" data-name="Слой 2" xmlns="http://www.w3.org/2000/svg" viewBox="0 0 27.09 19.99">
  <defs>
    <style>
      .cls-1 {
        fill: #fff;
      }
    </style>
  </defs>
  <g id="OBJECTS">
    <g>
      <path class="cls-1" d="M26.59,15.82c-1.15,0-1.69-.39-2.32-.83-.44-.31-.93-.65-1.62-.85.47-1,.75-1.84.76-1.88.04-.14.03-.28-.04-.41-.07-.12-.19-.21-.33-.24l-7.46-1.45.12-.75,2.62.51s.06,0,.09,0c.1,0,.21-.03.29-.1.11-.08.19-.21.2-.34.03-.22.62-5.35-2.05-7.61l.2-1.29c.02-.15-.02-.3-.13-.42-.1-.11-.24-.17-.41-.16-.21.02-5.06.47-7.08,7.64-.04.13-.02.28.06.4.07.12.19.2.33.23l4.89.95-.12.75-8.43-1.64c-.26-.05-.53.12-.59.39-.82,4.03.78,5.92,1.81,6.69-.43.24-.91.41-1.66.41-1.14,0-1.69-.39-2.32-.83-.67-.48-1.43-1.02-2.9-1.02-.28,0-.5.22-.5.5s.22.5.5.5c1.14,0,1.69.39,2.32.83.67.48,1.43,1.02,2.9,1.02s2.22-.54,2.9-1.02c.63-.45,1.17-.83,2.32-.83s1.69.39,2.32.83c.67.48,1.43,1.02,2.9,1.02s2.23-.54,2.9-1.02c.63-.45,1.18-.83,2.32-.83s1.69.39,2.32.83c.67.48,1.44,1.02,2.9,1.02.28,0,.5-.22.5-.5s-.22-.5-.5-.5ZM10.54,7.39c1.46-4.6,4.16-5.9,5.4-6.26l-1.09,7.09-4.31-.83ZM18.47,14.99c-.63.45-1.18.83-2.32.83s-1.69-.39-2.32-.83c-.67-.48-1.43-1.02-2.9-1.02-1.29,0-2.04.42-2.65.85-.63-.35-2.41-1.69-1.82-5.41l15.81,3.08c-.14.38-.37.92-.65,1.49-.08,0-.16-.01-.24-.01-1.46,0-2.23.54-2.9,1.02Z"/>
      <path class="cls-1" d="M12.19,17.3c-.38-.11-.8-.16-1.26-.16-1.46,0-2.22.54-2.9,1.02-.63.45-1.17.83-2.32.83s-1.69-.39-2.32-.83h0c-.23-.17-.53-.11-.69.12-.16.23-.1.54.12.7.67.48,1.43,1.02,2.89,1.02s2.22-.54,2.9-1.02c.63-.45,1.17-.83,2.32-.83.37,0,.7.04.99.12.27.08.54-.08.62-.35.07-.27-.08-.54-.35-.62Z"/>
      <path class="cls-1" d="M21.07,17.15c-1.27.07-1.98.57-2.6,1.01-.48.34-.89.63-1.55.76-.27.05-.45.32-.39.59.05.24.26.4.49.4.03,0,.07,0,.1,0,.86-.17,1.43-.57,1.93-.93.59-.41,1.09-.77,2.07-.83.28-.01.49-.25.47-.53-.01-.28-.26-.5-.53-.47Z"/>
    </g>
  </g>
</svg>