<?xml version="1.0" encoding="UTF-8"?>
<svg id="_Слой_2" data-name="Слой 2" xmlns="http://www.w3.org/2000/svg" viewBox="0 0 20.01 19.44">
  <defs>
    <style>
      .cls-1 {
        fill: #fff;
      }
    </style>
  </defs>
  <g id="OBJECTS">
    <g>
      <path class="cls-1" d="M19.47,18.37h-1.62l-3.74-7.79-3.52-7.34,1.18-2.47c.13-.27.02-.59-.25-.71-.26-.13-.58-.02-.71.25l-.81,1.7-.81-1.7c-.13-.27-.45-.38-.71-.25-.27.13-.38.45-.25.71l1.18,2.47-3.52,7.34-3.74,7.79H.54c-.3,0-.54.24-.54.54s.24.54.54.54h5.11c.18,0,.33-.1.43-.23.58-.45,2.85-2.34,3.93-5.17,1.08,2.84,3.35,4.72,3.93,5.17.1.14.25.23.43.23h5.11c.3,0,.54-.24.54-.54s-.24-.54-.54-.54ZM14.49,18.37c-.72-.57-3.5-3-3.99-6.37-.04-.25-.25-.43-.5-.43s-.46.18-.5.43c-.49,3.37-3.27,5.79-3.99,6.37h-2.17l6.66-13.89,6.66,13.89h-2.17Z"/>
      <path class="cls-1" d="M.2,11.41c-.21.18-.23.5-.04.71.18.21.5.22.71.04l.59-.52v2.11c0,.28.22.5.5.5s.5-.22.5-.5v-2.11l.59.52c.1.08.21.13.33.13.14,0,.28-.06.37-.17.18-.21.16-.52-.04-.71l-1.25-1.11v-1.78l.59.52c.1.08.21.13.33.13.14,0,.28-.06.37-.17.18-.21.16-.52-.04-.71l-1.42-1.26s-.05-.03-.08-.05c-.02-.01-.04-.03-.07-.04-.12-.05-.25-.05-.37,0-.02,0-.04.03-.07.04-.03.02-.06.03-.08.05l-1.42,1.26c-.21.18-.23.5-.04.71.18.21.5.22.71.04l.59-.52v1.78l-1.25,1.11Z"/>
      <path class="cls-1" d="M16.29,9c-.21.18-.23.5-.04.71.18.21.5.23.71.04l.59-.52v3.71c0,.28.22.5.5.5s.5-.22.5-.5v-3.71l.59.52c.1.08.21.13.33.13.14,0,.28-.06.37-.17.18-.21.16-.52-.04-.71l-1.25-1.11v-1.78l.59.52c.1.08.21.13.33.13.14,0,.28-.06.37-.17.18-.21.16-.52-.04-.71l-1.25-1.11v-1.78l.59.52c.1.09.21.13.33.13.14,0,.28-.06.37-.17.18-.21.16-.52-.04-.71l-1.42-1.26s-.05-.03-.08-.05c-.02-.01-.04-.03-.07-.04-.12-.05-.25-.05-.37,0-.02,0-.04.03-.07.04-.03.02-.06.03-.08.05l-1.42,1.26c-.21.18-.23.5-.04.71.18.21.5.23.71.04l.59-.52v1.78l-1.25,1.11c-.21.18-.23.5-.04.71.18.21.5.22.71.04l.59-.52v1.78l-1.25,1.11Z"/>
    </g>
  </g>
</svg>