<?xml version="1.0" encoding="UTF-8"?>
<svg id="_Слой_2" data-name="Слой 2" xmlns="http://www.w3.org/2000/svg" viewBox="0 0 13.43 11.41">
  <defs>
    <style>
      .cls-1 {
        fill: #fff;
      }
    </style>
  </defs>
  <g id="OBJECTS">
    <g>
      <path class="cls-1" d="M13.19,1.95L9.05.04c-.12-.05-.26-.05-.37.01l-4.5,2.45L.49,1.79c-.12-.02-.24,0-.34.09-.09.08-.15.19-.15.32v8.07c0,.2.14.37.33.4l3.84.74s.05,0,.08,0c.07,0,.14-.02.2-.05l4.45-2.42,3.95,1.83c.13.06.28.05.39-.03.12-.08.19-.21.19-.35V2.32c0-.16-.09-.31-.24-.37ZM9.05,8.1c-.12-.05-.26-.05-.37.01l-4.5,2.45-1.74-.33c.02-.09.01-.2-.04-.29-.11-.2-.36-.27-.56-.17-.24.13-.42.2-.52.24l-.51-.1V2.69l3.35.64c.09.02.19,0,.27-.04L8.89.87l3.71,1.72v2.13c-.12-.02-.24,0-.34.09-.17.15-.18.41-.03.58.12.14.25.29.37.45v3.9l-3.56-1.64Z"/>
      <path class="cls-1" d="M4.75,6.9c-.21-.1-.45,0-.55.2l-.09.2c-.18.42-.42.81-.69,1.16-.14.18-.11.44.07.58.08.06.16.09.25.09.12,0,.24-.05.32-.16.32-.4.59-.86.8-1.34l.08-.18c.1-.2,0-.45-.2-.55Z"/>
      <path class="cls-1" d="M6.82,3.98c-.47.31-.92.71-1.33,1.17-.15.17-.14.43.03.58.08.07.18.1.27.1.11,0,.23-.05.31-.14.36-.41.76-.76,1.17-1.03.19-.13.24-.38.11-.57-.12-.19-.38-.24-.57-.11Z"/>
      <path class="cls-1" d="M10.91,3.42c-.59-.24-1.21-.34-1.83-.28-.23.02-.39.22-.37.45.02.23.23.39.45.37.49-.04.98.03,1.44.22.05.02.1.03.16.03.16,0,.31-.1.38-.25.09-.21-.01-.45-.22-.54Z"/>
    </g>
  </g>
</svg>