<?xml version="1.0" encoding="UTF-8"?>
<svg id="_Слой_2" data-name="Слой 2" xmlns="http://www.w3.org/2000/svg" viewBox="0 0 11.44 11.57">
  <defs>
    <style>
      .cls-1 {
        fill: #fff;
      }
    </style>
  </defs>
  <g id="OBJECTS">
    <g>
      <path class="cls-1" d="M10.69,1.5H.75c-.41,0-.75-.34-.75-.75s.34-.75.75-.75h9.94c.41,0,.75.34.75.75s-.34.75-.75.75Z"/>
      <path class="cls-1" d="M10.69,11.57H.75c-.41,0-.75-.34-.75-.75s.34-.75.75-.75h9.94c.41,0,.75.34.75.75s-.34.75-.75.75Z"/>
      <path class="cls-1" d="M10.69,8.21H.75c-.41,0-.75-.34-.75-.75s.34-.75.75-.75h9.94c.41,0,.75.34.75.75s-.34.75-.75.75Z"/>
      <path class="cls-1" d="M10.69,4.86H.75c-.41,0-.75-.34-.75-.75s.34-.75.75-.75h9.94c.41,0,.75.34.75.75s-.34.75-.75.75Z"/>
    </g>
  </g>
</svg>